<svg width="32" height="32" viewBox="0 0 32 32" fill="none" xmlns="http://www.w3.org/2000/svg">
<g clip-path="url(#clip0)">
<path d="M2.93034 6.62269H9.10372V5.68496C9.10372 4.5128 10.0415 3.57507 11.2136 3.57507H20.7863C21.9584 3.57507 22.8962 4.5128 22.8962 5.68496V6.62269H29.0695C30.6715 6.62269 31.9999 7.95114 31.9999 9.5531V25.4945C31.9999 27.0964 30.6715 28.4249 29.0695 28.4249H2.93034C1.32839 28.4249 -6.10352e-05 27.0964 -6.10352e-05 25.4945V9.5531C-6.10352e-05 7.91207 1.32839 6.62269 2.93034 6.62269Z" fill="#2D2D2D"/>
<path d="M20.4346 13.1086C19.3015 11.9755 17.7387 11.3113 16.0195 11.3113C14.3003 11.3113 12.7374 12.0146 11.6044 13.1477C10.4713 14.2808 9.76797 15.8437 9.76797 17.5628C9.76797 19.282 10.4713 20.8449 11.6044 21.978C12.7374 23.1111 14.3003 23.8144 16.0195 23.8144C17.7387 23.8144 19.3015 23.1111 20.4346 21.978C21.5677 20.8449 22.271 19.282 22.271 17.5628C22.2319 15.8046 21.5287 14.2417 20.4346 13.1086ZM16.0195 9.67029C18.1685 9.67029 20.1611 10.5299 21.5677 11.9755C22.9743 13.3821 23.873 15.3748 23.873 17.5238C23.873 19.6727 23.0134 21.6654 21.5677 23.072C20.1611 24.4786 18.1685 25.3772 16.0195 25.3772C13.8705 25.3772 11.8779 24.5177 10.4713 23.072C9.06467 21.6654 8.16602 19.6727 8.16602 17.5238C8.16602 15.3748 9.0256 13.3821 10.4713 11.9755C11.8779 10.5299 13.8705 9.67029 16.0195 9.67029Z" fill="#FAFF00"/>
<path d="M27.4285 12.7179C28.2917 12.7179 28.9914 12.0182 28.9914 11.155C28.9914 10.2919 28.2917 9.59216 27.4285 9.59216C26.5654 9.59216 25.8657 10.2919 25.8657 11.155C25.8657 12.0182 26.5654 12.7179 27.4285 12.7179Z" fill="#FAFF00"/>
<path d="M16.0195 21.8217C18.3932 21.8217 20.3174 19.8974 20.3174 17.5238C20.3174 15.1501 18.3932 13.2258 16.0195 13.2258C13.6458 13.2258 11.7216 15.1501 11.7216 17.5238C11.7216 19.8974 13.6458 21.8217 16.0195 21.8217Z" fill="#FAFF00"/>
</g>
<defs>
<clipPath id="clip0">
<rect width="32" height="32" fill="white"/>
</clipPath>
</defs>
</svg>
