<svg width="23" height="25" viewBox="0 0 23 25" fill="none" xmlns="http://www.w3.org/2000/svg">
<g clip-path="url(#clip0)">
<path d="M22.6631 13.4731C22.477 13.4731 22.3262 13.6371 22.3262 13.8393V18.7825C22.3262 19.0292 22.1416 19.2299 21.9147 19.2299H20.4164C20.1971 19.2299 20.0188 19.4237 20.0188 19.662V22.0134L16.4024 19.3057C16.3358 19.2561 16.258 19.2299 16.1773 19.2299H10.0236C9.79665 19.2299 9.61207 19.0292 9.61207 18.7825V15.8229H10.8992C11.0853 15.8229 11.2361 15.659 11.2361 15.4567C11.2361 15.2545 11.0853 15.0905 10.8992 15.0905H5.28447C5.21619 15.0905 5.14957 15.113 5.09338 15.1551L2.43912 17.1424V15.4567C2.43912 15.2545 2.28828 15.0905 2.10221 15.0905H1.08217C0.85702 15.0905 0.673828 14.8914 0.673828 14.6467V3.15906C0.673828 2.91433 0.85702 2.71521 1.08217 2.71521H3.38693C3.573 2.71521 3.72384 2.55125 3.72384 2.349C3.72384 2.14675 3.573 1.98279 3.38693 1.98279H1.08217C0.485471 1.98274 0 2.51042 0 3.15906V14.6467C0 15.2952 0.485471 15.8229 1.08217 15.8229H1.76525V17.8393C1.76525 17.9754 1.83465 18.1002 1.94543 18.1635C1.99467 18.1916 2.04848 18.2055 2.10212 18.2055C2.16919 18.2055 2.23599 18.1838 2.29326 18.1409L5.38923 15.8229H8.9382V18.7825C8.9382 19.433 9.42506 19.9623 10.0235 19.9623H16.0915L20.0697 22.9408C20.1374 22.9915 20.2161 23.0172 20.295 23.0172C20.3583 23.0172 20.4218 23.0007 20.4801 22.9674C20.6112 22.8925 20.6927 22.7459 20.6927 22.5849V19.9623H21.9147C22.5131 19.9623 23 19.4331 23 18.7825V13.8393C23 13.6371 22.8492 13.4731 22.6631 13.4731Z" fill="#909090"/>
<path d="M21.9146 9.86482H19.1962V3.15906C19.1962 2.51042 18.7107 1.98279 18.114 1.98279H4.96509C4.77902 1.98279 4.62817 2.14675 4.62817 2.349C4.62817 2.55125 4.77902 2.71521 4.96509 2.71521H18.114C18.3392 2.71521 18.5224 2.91433 18.5224 3.15906V14.6467C18.5224 14.8914 18.3392 15.0905 18.114 15.0905H12.4572C12.2711 15.0905 12.1203 15.2545 12.1203 15.4567C12.1203 15.659 12.2711 15.8229 12.4572 15.8229H18.114C18.7107 15.8229 19.1962 15.2952 19.1962 14.6467V10.5972H21.9147C22.1416 10.5972 22.3262 10.7979 22.3262 11.0446V12.1378C22.3262 12.3401 22.477 12.504 22.6631 12.504C22.8492 12.504 23 12.3401 23 12.1378V11.0446C23 10.394 22.5131 9.86482 21.9146 9.86482Z" fill="#909090"/>
<path d="M16.8623 4.16699H2.34021C2.15414 4.16699 2.0033 4.33096 2.0033 4.5332C2.0033 4.73545 2.15414 4.89941 2.34021 4.89941H16.8623C17.0484 4.89941 17.1992 4.73545 17.1992 4.5332C17.1992 4.33096 17.0484 4.16699 16.8623 4.16699Z" fill="#909090"/>
<path d="M16.8622 8.54968H14.5615C14.3754 8.54968 14.2245 8.71365 14.2245 8.91589C14.2245 9.11814 14.3754 9.2821 14.5615 9.2821H16.8622C17.0483 9.2821 17.1991 9.11814 17.1991 8.91589C17.1991 8.71365 17.0483 8.54968 16.8622 8.54968Z" fill="#909090"/>
<path d="M2.34021 8.54968C2.15414 8.54968 2.0033 8.71365 2.0033 8.91589C2.0033 9.11814 2.15414 9.2821 2.34021 9.2821H13.0019C13.188 9.2821 13.3388 9.11814 13.3388 8.91589C13.3388 8.71365 13.188 8.54968 13.0019 8.54968H2.34021Z" fill="#909090"/>
<path d="M2.34021 12.9116C2.15414 12.9116 2.0033 13.0756 2.0033 13.2778C2.0033 13.4801 2.15414 13.644 2.34021 13.644H4.64093C4.82699 13.644 4.97784 13.4801 4.97784 13.2778C4.97784 13.0756 4.82699 12.9116 4.64093 12.9116H2.34021Z" fill="#909090"/>
<path d="M16.8623 12.9116H6.20056C6.0145 12.9116 5.86365 13.0756 5.86365 13.2778C5.86365 13.4801 6.0145 13.644 6.20056 13.644H16.8623C17.0484 13.644 17.1992 13.4801 17.1992 13.2778C17.1992 13.0756 17.0484 12.9116 16.8623 12.9116Z" fill="#909090"/>
<path d="M16.8623 10.7144H2.34021C2.15414 10.7144 2.0033 10.8783 2.0033 11.0806C2.0033 11.2828 2.15414 11.4468 2.34021 11.4468H16.8623C17.0484 11.4468 17.1992 11.2828 17.1992 11.0806C17.1992 10.8783 17.0484 10.7144 16.8623 10.7144Z" fill="#909090"/>
<path d="M15.8499 6.74011C15.8499 6.53787 15.6991 6.3739 15.513 6.3739H2.33856C2.1525 6.3739 2.00165 6.53787 2.00165 6.74011C2.00165 6.94236 2.1525 7.10632 2.33856 7.10632H15.513C15.6991 7.10632 15.8499 6.94236 15.8499 6.74011Z" fill="#909090"/>
</g>
<defs>
<clipPath id="clip0">
<rect width="23" height="25" fill="white"/>
</clipPath>
</defs>
</svg>
