<svg width="23" height="22" viewBox="0 0 23 22" fill="none" xmlns="http://www.w3.org/2000/svg">
<path d="M16.8534 0C14.6341 0.000193629 12.5872 1.19779 11.5 3.13272C10.4128 1.19779 8.36592 0.000193629 6.14655 0C2.75205 0 0 3.1486 0 6.5431C0 15.069 11.5 21.0172 11.5 21.0172C11.5 21.0172 23 15.069 23 6.5431C23 3.1486 20.248 0 16.8534 0Z" fill="#DD00F0"/>
<path d="M2.5 6.54311C2.5 3.40245 3.94325 0.477877 6.984 0.057122C6.70653 0.018977 6.42673 -0.000192177 6.14655 1.45227e-06C2.75205 1.45227e-06 0 3.1486 0 6.54311C0 15.069 11.5 21.0172 11.5 21.0172C11.5 21.0172 11.7974 20.8629 12.2931 20.5715C9.69499 19.0436 2.5 13.7033 2.5 6.54311Z" fill="#BB00CB"/>
</svg>
