<svg width="23" height="23" viewBox="0 0 23 23" fill="none" xmlns="http://www.w3.org/2000/svg">
<g clip-path="url(#clip0)">
<path d="M16.675 0.958374C14.6146 0.961556 12.6844 1.9665 11.5 3.65238C10.3156 1.9665 8.38542 0.961556 6.325 0.958374C2.95548 0.958374 0 4.09336 0 7.66671C0 11.1493 1.96645 14.7361 5.68711 18.0397C7.41099 19.5674 9.30201 20.8955 11.3241 21.9988C11.4345 22.0557 11.5655 22.0557 11.6759 21.9988C13.6972 20.8955 15.5877 19.5673 17.311 18.0397C21.0335 14.7361 23 11.1493 23 7.66671C23 4.09336 20.0445 0.958374 16.675 0.958374V0.958374ZM11.5 21.2224C10.0921 20.4455 0.766667 15.0174 0.766667 7.66671C0.766667 4.50159 3.36371 1.72504 6.325 1.72504C8.33114 1.7286 10.1804 2.81084 11.1661 4.5583C11.2398 4.67098 11.3654 4.73874 11.5 4.73874C11.6346 4.73874 11.7602 4.67098 11.8339 4.5583C12.8196 2.81084 14.6689 1.7286 16.675 1.72504C19.6363 1.72504 22.2333 4.50159 22.2333 7.66671C22.2333 15.0174 12.9079 20.4455 11.5 21.2224Z" fill="#909090"/>
</g>
<defs>
<clipPath id="clip0">
<rect width="23" height="23" fill="white"/>
</clipPath>
</defs>
</svg>
