<svg width="23" height="23" viewBox="0 0 23 23" fill="none" xmlns="http://www.w3.org/2000/svg">
<path d="M23 15.3473L19.4154 18.9263L15.8053 15.3312L17.0726 14.0586L18.5043 15.4844V6.78689C18.5059 6.54982 18.4146 6.32661 18.2474 6.15833C18.0786 5.9883 17.8531 5.89477 17.6127 5.89477H7.94415L6.14079 4.09877H17.6127C18.3351 4.09877 19.013 4.38076 19.5215 4.89245C20.0276 5.40203 20.304 6.07761 20.3001 6.79549V15.5051L21.731 14.0763L23 15.3473ZM14.7326 17.1194H5.38729C5.14671 17.1194 4.9214 17.0259 4.75259 16.8561C4.58537 16.6878 4.49412 16.4644 4.4957 16.2273V7.52985L5.92741 8.9556L7.19469 7.68305L3.58463 4.08789L0 7.66708L1.26904 8.93787L2.69987 7.50932V16.2187C2.69601 16.9366 2.97239 17.6124 3.47846 18.1218C3.98699 18.6335 4.66486 18.9154 5.38729 18.9154H16.8592L15.0558 17.1194H14.7326Z" fill="#919191"/>
</svg>
