<svg width="24" height="24" viewBox="0 0 24 24" fill="none" xmlns="http://www.w3.org/2000/svg">
<path d="M0 0L2.72727 3.29032V13.1613L1.09091 17H24" stroke="#131313" stroke-width="2"/>
<path d="M3 3H22L18.7429 13H3" stroke="#131313" stroke-width="2"/>
<path fill-rule="evenodd" clip-rule="evenodd" d="M3 24C4.10457 24 5 23.1046 5 22C5 20.8954 4.10457 20 3 20C1.89543 20 1 20.8954 1 22C1 23.1046 1.89543 24 3 24Z" stroke="#131313" stroke-width="2" stroke-linecap="square"/>
<path fill-rule="evenodd" clip-rule="evenodd" d="M21 24C22.1046 24 23 23.1046 23 22C23 20.8954 22.1046 20 21 20C19.8954 20 19 20.8954 19 22C19 23.1046 19.8954 24 21 24Z" stroke="#131313" stroke-width="2" stroke-linecap="square"/>
</svg>
