<svg width="14" height="23" viewBox="0 0 14 23" fill="none" xmlns="http://www.w3.org/2000/svg">
<path d="M12.477 1.09954L9.63561 1.09521C6.44345 1.09521 4.38053 3.10531 4.38053 6.21647V8.57771H1.52368C1.27681 8.57771 1.0769 8.76778 1.0769 9.00224V12.4234C1.0769 12.6579 1.27704 12.8477 1.52368 12.8477H4.38053V21.4804C4.38053 21.7149 4.58044 21.9047 4.82731 21.9047H8.55469C8.80156 21.9047 9.00147 21.7147 9.00147 21.4804V12.8477H12.3418C12.5887 12.8477 12.7886 12.6579 12.7886 12.4234L12.7899 9.00224C12.7899 8.88967 12.7428 8.78186 12.6591 8.70219C12.5754 8.62252 12.4615 8.57771 12.3429 8.57771H9.00147V6.57605C9.00147 5.61398 9.24286 5.12558 10.5624 5.12558L12.4765 5.12493C12.7231 5.12493 12.9231 4.93485 12.9231 4.70061V1.52386C12.9231 1.28984 12.7234 1.09998 12.477 1.09954Z" stroke="#131313" stroke-width="2"/>
</svg>
