<svg width="25" height="25" viewBox="0 0 25 25" fill="none" xmlns="http://www.w3.org/2000/svg">
<path d="M16.7968 1.04163H8.20308C4.24853 1.04163 1.04163 4.24853 1.04163 8.20308V16.7968C1.04163 20.7514 4.24853 23.9583 8.20308 23.9583H16.7968C20.7514 23.9583 23.9583 20.7514 23.9583 16.7968V8.20308C23.9583 4.24853 20.7514 1.04163 16.7968 1.04163Z" stroke="#131313" stroke-width="2"/>
<path d="M12.5 6.25C9.04844 6.25 6.25 9.04844 6.25 12.5C6.25 15.9516 9.04844 18.75 12.5 18.75C15.9516 18.75 18.75 15.9516 18.75 12.5C18.75 9.04844 15.9516 6.25 12.5 6.25Z" stroke="#131313" stroke-width="2"/>
<path d="M19.2708 6.77083C19.8461 6.77083 20.3125 6.30446 20.3125 5.72917C20.3125 5.15387 19.8461 4.6875 19.2708 4.6875C18.6955 4.6875 18.2291 5.15387 18.2291 5.72917C18.2291 6.30446 18.6955 6.77083 19.2708 6.77083Z" stroke="#131313" stroke-width="3.5"/>
</svg>
