<svg width="28" height="23" viewBox="0 0 28 23" fill="none" xmlns="http://www.w3.org/2000/svg">
<path d="M11.6225 21.9546C10.636 21.9546 9.62048 21.8696 8.59891 21.6992C6.79963 21.3989 4.97825 20.3977 4.46285 20.0979L3.11108 19.3117L4.5746 18.7997C6.1744 18.2402 7.14758 17.893 8.35226 17.3493C7.14601 16.7279 6.21635 15.6101 5.76884 14.165L5.42837 13.0655L5.70757 13.1109C5.44282 12.827 5.23377 12.5389 5.07172 12.2769C4.4954 11.3457 4.19027 10.2078 4.25519 9.23276L4.31925 8.27305L4.85936 8.49562C4.63151 8.03789 4.46685 7.54905 4.37007 7.03669C4.13422 5.78719 4.33161 4.45974 4.92603 3.29894L5.39652 2.38014L6.02575 3.18413C8.0158 5.7272 10.5364 7.23575 13.528 7.67737C13.4058 6.78135 13.4974 5.91663 13.8004 5.14152C14.1532 4.23902 14.7809 3.47373 15.615 2.92823C16.5414 2.32256 17.6647 2.02907 18.7782 2.10184C19.9596 2.17905 21.0321 2.64993 21.884 3.46447C22.3 3.34949 22.6065 3.22672 23.0208 3.06081C23.2701 2.96101 23.5527 2.84769 23.9064 2.71807L25.2098 2.24034L24.3599 4.82267C24.4159 4.81767 24.4737 4.81341 24.5341 4.81063L25.9259 4.7436L25.1033 5.93959C25.0561 6.0081 25.0441 6.02754 25.0274 6.05439C24.9611 6.16067 24.8786 6.29288 23.7494 7.89679C23.4668 8.29841 23.3256 8.82151 23.3519 9.36997C23.452 11.4542 23.2116 13.3399 22.637 14.9746C22.0936 16.5211 21.2515 17.848 20.1343 18.9184C18.7519 20.2427 16.9892 21.1495 14.8949 21.6131C13.8676 21.8405 12.7644 21.9546 11.6225 21.9546Z" stroke="#131313" stroke-width="2"/>
</svg>
